<svg width="24" height="24" viewBox="0 0 24 24" fill="none" xmlns="http://www.w3.org/2000/svg">
<path d="M13.7321 21.7697L14.2742 20.8539L12.9833 20.0898L12.4412 21.0057L13.7321 21.7697ZM9.72579 20.8539L10.2679 21.7697L11.5587 21.0057L11.0166 20.0898L9.72579 20.8539ZM12.4412 21.0057C12.2485 21.3313 11.7515 21.3313 11.5587 21.0057L10.2679 21.7697C11.0415 23.0767 12.9585 23.0767 13.7321 21.7697L12.4412 21.0057ZM10.5 2.75H13.5V1.25H10.5V2.75ZM21.25 10.5V11.5H22.75V10.5H21.25ZM2.75 11.5V10.5H1.25V11.5H2.75ZM1.25 11.5C1.25 12.6546 1.24959 13.5581 1.29931 14.2868C1.3495 15.0223 1.45323 15.6344 1.68769 16.2004L3.07351 15.6264C2.92737 15.2736 2.84081 14.8438 2.79584 14.1847C2.75041 13.5189 2.75 12.6751 2.75 11.5H1.25ZM7.8025 18.2416C6.54706 18.2199 5.88923 18.1401 5.37359 17.9265L4.79957 19.3123C5.60454 19.6457 6.52138 19.7197 7.77666 19.7413L7.8025 18.2416ZM1.68769 16.2004C2.27128 17.6093 3.39066 18.7287 4.79957 19.3123L5.37359 17.9265C4.33222 17.4951 3.50486 16.6678 3.07351 15.6264L1.68769 16.2004ZM21.25 11.5C21.25 12.6751 21.2496 13.5189 21.2042 14.1847C21.1592 14.8438 21.0726 15.2736 20.9265 15.6264L22.3123 16.2004C22.5468 15.6344 22.6505 15.0223 22.7007 14.2868C22.7504 13.5581 22.75 12.6546 22.75 11.5H21.25ZM16.2233 19.7413C17.4786 19.7197 18.3955 19.6457 19.2004 19.3123L18.6264 17.9265C18.1108 18.1401 17.4529 18.2199 16.1975 18.2416L16.2233 19.7413ZM20.9265 15.6264C20.4951 16.6678 19.6678 17.4951 18.6264 17.9265L19.2004 19.3123C20.6093 18.7287 21.7287 17.6093 22.3123 16.2004L20.9265 15.6264ZM13.5 2.75C15.1512 2.75 16.337 2.75079 17.2619 2.83873C18.1757 2.92561 18.7571 3.09223 19.2206 3.37628L20.0044 2.09732C19.2655 1.64457 18.4274 1.44279 17.4039 1.34547C16.3915 1.24921 15.1222 1.25 13.5 1.25V2.75ZM22.75 10.5C22.75 8.87781 22.7508 7.6085 22.6545 6.59611C22.5572 5.57256 22.3554 4.73445 21.9027 3.99563L20.6237 4.77938C20.9078 5.24291 21.0744 5.82434 21.1613 6.73809C21.2492 7.663 21.25 8.84876 21.25 10.5H22.75ZM19.2206 3.37628C19.7925 3.72672 20.2733 4.20752 20.6237 4.77938L21.9027 3.99563C21.4286 3.22194 20.7781 2.57144 20.0044 2.09732L19.2206 3.37628ZM10.5 1.25C8.87781 1.25 7.6085 1.24921 6.59611 1.34547C5.57256 1.44279 4.73445 1.64457 3.99563 2.09732L4.77938 3.37628C5.24291 3.09223 5.82434 2.92561 6.73809 2.83873C7.663 2.75079 8.84876 2.75 10.5 2.75V1.25ZM2.75 10.5C2.75 8.84876 2.75079 7.663 2.83873 6.73809C2.92561 5.82434 3.09223 5.24291 3.37628 4.77938L2.09732 3.99563C1.64457 4.73445 1.44279 5.57256 1.34547 6.59611C1.24921 7.6085 1.25 8.87781 1.25 10.5H2.75ZM3.99563 2.09732C3.22194 2.57144 2.57144 3.22194 2.09732 3.99563L3.37628 4.77938C3.72672 4.20752 4.20752 3.72672 4.77938 3.37628L3.99563 2.09732ZM11.0166 20.0898C10.8136 19.7468 10.6354 19.4441 10.4621 19.2063C10.2795 18.9559 10.0702 18.7304 9.77986 18.5615L9.02572 19.8582C9.07313 19.8857 9.13772 19.936 9.24985 20.0898C9.37122 20.2564 9.50835 20.4865 9.72579 20.8539L11.0166 20.0898ZM7.77666 19.7413C8.21575 19.7489 8.49387 19.7545 8.70588 19.7779C8.90399 19.7999 8.98078 19.832 9.02572 19.8582L9.77986 18.5615C9.4871 18.3912 9.18246 18.3215 8.87097 18.287C8.57339 18.2541 8.21375 18.2487 7.8025 18.2416L7.77666 19.7413ZM14.2742 20.8539C14.4916 20.4865 14.6287 20.2564 14.7501 20.0898C14.8622 19.936 14.9268 19.8857 14.9742 19.8582L14.2201 18.5615C13.9298 18.7304 13.7204 18.9559 13.5379 19.2063C13.3646 19.4441 13.1864 19.7468 12.9833 20.0898L14.2742 20.8539ZM16.1975 18.2416C15.7862 18.2487 15.4266 18.2541 15.129 18.287C14.8175 18.3215 14.5129 18.3912 14.2201 18.5615L14.9742 19.8582C15.0192 19.832 15.096 19.7999 15.2941 19.7779C15.5061 19.7545 15.7842 19.7489 16.2233 19.7413L16.1975 18.2416Z" fill="#6B7280"/>
<path fill-rule="evenodd" clip-rule="evenodd" d="M11.9999 5.93757C11.036 5.93757 10.9399 6.04167 10.441 6.04167C10.0253 6.04167 8.77824 5 8.15471 5C7.53116 5 6.8037 5.375 6.8037 6.45833V7.70833C6.80496 8.03646 6.92141 9.04227 7.37717 8.77347C6.83834 9.42547 6.7839 10.1857 6.7913 10.9217C6.64618 10.9647 6.4981 11.0131 6.3544 11.0633C5.90909 11.2193 5.43682 11.4181 5.22347 11.5591C4.9969 11.7089 4.93185 12.0185 5.07818 12.2504C5.2245 12.4824 5.5268 12.549 5.75336 12.3992C5.85509 12.3319 6.223 12.1662 6.6704 12.0096C6.71983 11.9923 6.76937 11.9754 6.81864 11.9591C6.84877 12.2483 6.92354 12.5123 7.03469 12.7528L7.01933 12.7611C6.75255 12.9054 6.50499 13.0711 6.34715 13.1768C6.31983 13.1951 6.29521 13.2115 6.27364 13.2258C6.04706 13.3756 5.98201 13.6851 6.12834 13.9171C6.27466 14.1491 6.57696 14.2157 6.80353 14.0659C6.83031 14.0481 6.85884 14.0291 6.88896 14.0089C7.0487 13.9022 7.25296 13.7657 7.47565 13.6452C7.52787 13.6169 7.57812 13.5913 7.62618 13.5683C8.75286 14.6499 10.7756 15 11.9999 15C13.2241 15 15.2469 14.6499 16.3736 13.5683C16.4216 13.5913 16.4718 13.6169 16.5241 13.6452C16.7467 13.7657 16.951 13.9022 17.1107 14.0089C17.1409 14.0291 17.1694 14.0481 17.1962 14.0659C17.4228 14.2157 17.725 14.1491 17.8714 13.9171C18.0177 13.6851 17.9527 13.3756 17.7261 13.2258C17.7045 13.2115 17.6799 13.1951 17.6526 13.1768C17.4947 13.0711 17.2471 12.9054 16.9804 12.7611L16.9651 12.7528C17.0762 12.5122 17.151 12.2483 17.1811 11.959C17.2305 11.9753 17.2801 11.9922 17.3296 12.0096C17.777 12.1662 18.1449 12.3319 18.2467 12.3992C18.4732 12.549 18.7755 12.4824 18.9218 12.2504C19.0681 12.0185 19.0031 11.7089 18.7766 11.5591C18.5632 11.4181 18.0909 11.2193 17.6456 11.0633C17.5018 11.013 17.3537 10.9647 17.2085 10.9217C17.2158 10.1857 17.1614 9.42547 16.6226 8.77347C17.0784 9.04227 17.1948 8.03646 17.1961 7.70833V6.45841C17.1961 5.37507 16.4686 5.00007 15.845 5.00007C15.2215 5.00007 13.9744 6.04167 13.5587 6.04167C13.0599 6.04167 12.9638 5.93757 11.9999 5.93757ZM11.56 12.0669C11.6919 12.0209 11.8476 12 11.9999 12C12.1522 12 12.3079 12.0209 12.4398 12.0669C12.5045 12.0895 12.5837 12.1251 12.6534 12.1825C12.7234 12.2402 12.8138 12.3471 12.8138 12.5C12.8138 12.6529 12.7234 12.7598 12.6534 12.8175C12.5837 12.8749 12.5045 12.9105 12.4398 12.9331C12.3079 12.9791 12.1522 13 11.9999 13C11.8476 13 11.6919 12.9791 11.56 12.9331C11.4952 12.9105 11.4161 12.8749 11.3463 12.8175C11.2763 12.7598 11.186 12.6529 11.186 12.5C11.186 12.3471 11.2763 12.2402 11.3463 12.1825C11.4161 12.1251 11.4952 12.0895 11.56 12.0669ZM13.4129 10.0003C13.5018 9.84807 13.6772 9.66667 13.9403 9.66667C14.2034 9.66667 14.3788 9.84807 14.4677 10.0003C14.5603 10.1591 14.6045 10.3516 14.6045 10.5417C14.6045 10.7317 14.5603 10.9242 14.4677 11.083C14.3788 11.2353 14.2034 11.4167 13.9403 11.4167C13.6772 11.4167 13.5018 11.2353 13.4129 11.083C13.3202 10.9242 13.2761 10.7317 13.2761 10.5417C13.2761 10.3516 13.3202 10.1591 13.4129 10.0003ZM9.53208 10.0003C9.62091 9.84807 9.79634 9.66667 10.0595 9.66667C10.3226 9.66667 10.498 9.84807 10.5869 10.0003C10.6795 10.1591 10.7236 10.3516 10.7236 10.5417C10.7236 10.7317 10.6795 10.9242 10.5869 11.083C10.498 11.2353 10.3226 11.4167 10.0595 11.4167C9.79634 11.4167 9.62091 11.2353 9.53208 11.083C9.43942 10.9242 9.3953 10.7317 9.3953 10.5417C9.3953 10.3516 9.43942 10.1591 9.53208 10.0003Z" fill="#6B7280"/>
</svg>
