<svg width="24" height="24" viewBox="0 0 24 24" fill="none" xmlns="http://www.w3.org/2000/svg">
<path d="M13.6288 20.4718L13.0867 21.3877C12.6035 22.204 11.3965 22.204 10.9133 21.3877L10.3712 20.4718C9.95073 19.7614 9.74049 19.4063 9.40279 19.2098C9.06509 19.0134 8.63992 19.0061 7.78958 18.9915C6.53422 18.9698 5.74689 18.8929 5.08658 18.6194C3.86144 18.1119 2.88807 17.1386 2.3806 15.9134C2 14.9946 2 13.8297 2 11.5V10.5C2 7.22657 2 5.58985 2.7368 4.38751C3.14908 3.71473 3.71473 3.14908 4.38751 2.7368C5.58985 2 7.22657 2 10.5 2H13.5C16.7734 2 18.4101 2 19.6125 2.7368C20.2853 3.14908 20.8509 3.71473 21.2632 4.38751C22 5.58985 22 7.22657 22 10.5V11.5C22 13.8297 22 14.9946 21.6194 15.9134C21.1119 17.1386 20.1386 18.1119 18.9134 18.6194C18.2531 18.8929 17.4658 18.9698 16.2104 18.9915C15.36 19.0061 14.9349 19.0134 14.5972 19.2098C14.2595 19.4062 14.0492 19.7614 13.6288 20.4718Z" fill="#4F378A"/>
<path fill-rule="evenodd" clip-rule="evenodd" d="M11.9999 5.93757C11.036 5.93757 10.9399 6.04167 10.441 6.04167C10.0253 6.04167 8.77824 5 8.15471 5C7.53116 5 6.8037 5.375 6.8037 6.45833V7.70833C6.80496 8.03646 6.92141 9.04227 7.37717 8.77347C6.83834 9.42547 6.7839 10.1857 6.7913 10.9217C6.64618 10.9647 6.4981 11.0131 6.3544 11.0633C5.90909 11.2193 5.43682 11.4181 5.22347 11.5591C4.9969 11.7089 4.93185 12.0185 5.07818 12.2504C5.2245 12.4824 5.5268 12.549 5.75336 12.3992C5.85509 12.3319 6.223 12.1662 6.6704 12.0096C6.71983 11.9923 6.76937 11.9754 6.81864 11.9591C6.84877 12.2483 6.92354 12.5123 7.03469 12.7528L7.01933 12.7611C6.75255 12.9054 6.50499 13.0711 6.34715 13.1768C6.31983 13.1951 6.29521 13.2115 6.27364 13.2258C6.04706 13.3756 5.98201 13.6851 6.12834 13.9171C6.27466 14.1491 6.57696 14.2157 6.80353 14.0659C6.83031 14.0481 6.85884 14.0291 6.88896 14.0089C7.0487 13.9022 7.25296 13.7657 7.47565 13.6452C7.52787 13.6169 7.57812 13.5913 7.62618 13.5683C8.75286 14.6499 10.7756 15 11.9999 15C13.2241 15 15.2469 14.6499 16.3736 13.5683C16.4216 13.5913 16.4718 13.6169 16.5241 13.6452C16.7467 13.7657 16.951 13.9022 17.1107 14.0089C17.1409 14.0291 17.1694 14.0481 17.1962 14.0659C17.4228 14.2157 17.725 14.1491 17.8714 13.9171C18.0177 13.6851 17.9527 13.3756 17.7261 13.2258C17.7045 13.2115 17.6799 13.1951 17.6526 13.1768C17.4947 13.0711 17.2471 12.9054 16.9804 12.7611L16.9651 12.7528C17.0762 12.5122 17.151 12.2483 17.1811 11.959C17.2305 11.9753 17.2801 11.9922 17.3296 12.0096C17.777 12.1662 18.1449 12.3319 18.2467 12.3992C18.4732 12.549 18.7755 12.4824 18.9218 12.2504C19.0681 12.0185 19.0031 11.7089 18.7766 11.5591C18.5632 11.4181 18.0909 11.2193 17.6456 11.0633C17.5018 11.013 17.3537 10.9647 17.2085 10.9217C17.2158 10.1857 17.1614 9.42547 16.6226 8.77347C17.0784 9.04227 17.1948 8.03646 17.1961 7.70833V6.45841C17.1961 5.37507 16.4686 5.00007 15.845 5.00007C15.2215 5.00007 13.9744 6.04167 13.5587 6.04167C13.0599 6.04167 12.9638 5.93757 11.9999 5.93757ZM11.56 12.0669C11.6919 12.0209 11.8476 12 11.9999 12C12.1522 12 12.3079 12.0209 12.4398 12.0669C12.5045 12.0895 12.5837 12.1251 12.6534 12.1825C12.7234 12.2402 12.8138 12.3471 12.8138 12.5C12.8138 12.6529 12.7234 12.7598 12.6534 12.8175C12.5837 12.8749 12.5045 12.9105 12.4398 12.9331C12.3079 12.9791 12.1522 13 11.9999 13C11.8476 13 11.6919 12.9791 11.56 12.9331C11.4952 12.9105 11.4161 12.8749 11.3463 12.8175C11.2763 12.7598 11.186 12.6529 11.186 12.5C11.186 12.3471 11.2763 12.2402 11.3463 12.1825C11.4161 12.1251 11.4952 12.0895 11.56 12.0669ZM13.4129 10.0003C13.5018 9.84807 13.6772 9.66667 13.9403 9.66667C14.2034 9.66667 14.3788 9.84807 14.4677 10.0003C14.5603 10.1591 14.6045 10.3516 14.6045 10.5417C14.6045 10.7317 14.5603 10.9242 14.4677 11.083C14.3788 11.2353 14.2034 11.4167 13.9403 11.4167C13.6772 11.4167 13.5018 11.2353 13.4129 11.083C13.3202 10.9242 13.2761 10.7317 13.2761 10.5417C13.2761 10.3516 13.3202 10.1591 13.4129 10.0003ZM9.53208 10.0003C9.62091 9.84807 9.79634 9.66667 10.0595 9.66667C10.3226 9.66667 10.498 9.84807 10.5869 10.0003C10.6795 10.1591 10.7236 10.3516 10.7236 10.5417C10.7236 10.7317 10.6795 10.9242 10.5869 11.083C10.498 11.2353 10.3226 11.4167 10.0595 11.4167C9.79634 11.4167 9.62091 11.2353 9.53208 11.083C9.43942 10.9242 9.3953 10.7317 9.3953 10.5417C9.3953 10.3516 9.43942 10.1591 9.53208 10.0003Z" fill="white"/>
</svg>
