<svg width="24" height="24" viewBox="0 0 24 24" fill="none" xmlns="http://www.w3.org/2000/svg">
<path d="M12 5.50054L11.4596 6.02064C11.463 6.02412 11.4664 6.02756 11.4698 6.03097L12 5.50054ZM13.4698 8.03025C13.7627 8.32309 14.2376 8.323 14.5304 8.03005C14.8233 7.73711 14.8232 7.26223 14.5302 6.96939L13.4698 8.03025ZM9.42605 18.3218C7.91039 17.127 6.25307 15.9602 4.93829 14.4797C3.64922 13.0281 2.75 11.3344 2.75 9.13701H1.25C1.25 11.8025 2.3605 13.836 3.81672 15.4757C5.24723 17.0865 7.07077 18.3751 8.49742 19.4998L9.42605 18.3218ZM2.75 9.13701C2.75 6.98614 3.96537 5.18243 5.62436 4.4241C7.23607 3.68739 9.40166 3.88249 11.4596 6.02064L12.5404 4.98044C10.0985 2.44343 7.26409 2.0253 5.00076 3.05987C2.78471 4.07283 1.25 6.42494 1.25 9.13701H2.75ZM8.49742 19.4998C9.00965 19.9036 9.55954 20.3342 10.1168 20.6598C10.6739 20.9853 11.3096 21.2499 12 21.2499V19.7499C11.6904 19.7499 11.3261 19.6292 10.8736 19.3647C10.4213 19.1004 9.95208 18.7365 9.42605 18.3218L8.49742 19.4998ZM15.5026 19.4998C16.9292 18.3751 18.7528 17.0865 20.1833 15.4757C21.6395 13.836 22.75 11.8025 22.75 9.13701H21.25C21.25 11.3344 20.3508 13.0281 19.0617 14.4797C17.7469 15.9602 16.0896 17.127 14.574 18.3218L15.5026 19.4998ZM22.75 9.13701C22.75 6.42494 21.2153 4.07283 18.9992 3.05987C16.7359 2.0253 13.9015 2.44343 11.4596 4.98044L12.5404 6.02064C14.5983 3.88249 16.7639 3.68739 18.3756 4.4241C20.0346 5.18243 21.25 6.98614 21.25 9.13701H22.75ZM14.574 18.3218C14.0479 18.7365 13.5787 19.1004 13.1264 19.3647C12.6739 19.6292 12.3096 19.7499 12 19.7499V21.2499C12.6904 21.2499 13.3261 20.9853 13.8832 20.6598C14.4405 20.3342 14.9903 19.9036 15.5026 19.4998L14.574 18.3218ZM11.4698 6.03097L13.4698 8.03025L14.5302 6.96939L12.5302 4.97012L11.4698 6.03097Z" fill="#6B7280"/>
</svg>
